<svg xmlns="http://www.w3.org/2000/svg" xmlns:xlink="http://www.w3.org/1999/xlink" enable-background="new 0 0 32 32" height="30" version="1.1" width="32" xml:space="preserve" style=""><rect id="backgroundrect" width="100%" height="100%" x="0" y="0" fill="none" stroke="none"/><g class="currentLayer" style=""><title>Layer 1</title><path d="M31.86700555748213,29.046 c0.05000000000000001,-0.3360000000000001 1.109,-8.41 -3.6390000000000002,-13.966 c-2.917,-3.414 -7.418,-5.283 -13.23,-5.468 l-0.031000000000000007,-5.613 c0,-0.38600000000000007 -0.22300000000000003,-0.7370000000000001 -0.5710000000000001,-0.903 c-0.3490000000000001,-0.16300000000000003 -0.7620000000000001,-0.11600000000000002 -1.061,0.128 L0.3680055574821309,13.866 C0.13600555748213083,14.056 0.0010055574821308255,14.34 0.000005557482130825282,14.64 c-0.0010000000000000002,0.30000000000000004 0.133,0.5840000000000001 0.36500000000000005,0.774 l12.968,10.743 c0.29800000000000004,0.24700000000000003 0.7150000000000001,0.29800000000000004 1.061,0.132 c0.35100000000000003,-0.16500000000000004 0.5730000000000001,-0.518 0.5730000000000001,-0.904 l0.031000000000000007,-5.739 c14.009,-0.010000000000000002 15.005,8.966 15.039,9.337 c0.04300000000000001,0.504 0.36200000000000004,0.8970000000000001 0.8680000000000001,0.913 c0.012000000000000002,0.0010000000000000002 0.023000000000000007,0.0010000000000000002 0.03400000000000001,0.0010000000000000002 C31.43400555748213,29.897 31.793005557482132,29.536 31.86700555748213,29.046 zM13.26200555748213,17.922 c-0.18800000000000003,0.18800000000000003 -0.29400000000000004,0.44200000000000006 -0.29400000000000004,0.7080000000000001 v4.638 L2.579005557482131,14.646 l10.389,-8.542 v4.493 c0,0.553 0.44700000000000006,1 1,1 c5.69,0 10.037,1.6480000000000001 12.735,4.776 c2.029,2.354 2.962,5.235 3.281,7.626 c-2.184,-2.984 -6.008,-6.363 -16.015,-6.369 c0,0 -0.0010000000000000002,0 -0.0020000000000000005,0 C13.70300555748213,17.63 13.449005557482131,17.735 13.26200555748213,17.922 z" fill="#e841e8" id="Arrow_Left_1_" class="" fill-opacity="1"/><g id="svg_1" class=""/><g id="svg_2" class=""/><g id="svg_3" class=""/><g id="svg_4" class=""/><g id="svg_5" class=""/><g id="svg_6" class=""/></g></svg>